<?xml version="1.0" encoding="UTF-8" standalone="no"?>
<!-- Created with Inkscape (http://www.inkscape.org/) -->

<svg
   xmlns:dc="http://purl.org/dc/elements/1.1/"
   xmlns:cc="http://creativecommons.org/ns#"
   xmlns:rdf="http://www.w3.org/1999/02/22-rdf-syntax-ns#"
   xmlns:svg="http://www.w3.org/2000/svg"
   xmlns="http://www.w3.org/2000/svg"
   xmlns:sodipodi="http://sodipodi.sourceforge.net/DTD/sodipodi-0.dtd"
   xmlns:inkscape="http://www.inkscape.org/namespaces/inkscape"
   width="10mm"
   height="10mm"
   viewBox="0 0 10 10"
   version="1.1"
   id="svg8"
   inkscape:version="0.92.3 (2405546, 2018-03-11)"
   sodipodi:docname="search.svg">
  <defs
     id="defs2" />
  <sodipodi:namedview
     id="base"
     pagecolor="#ffffff"
     bordercolor="#666666"
     borderopacity="1.0"
     inkscape:pageopacity="0.0"
     inkscape:pageshadow="2"
     inkscape:zoom="22.4"
     inkscape:cx="14.365179"
     inkscape:cy="18.817451"
     inkscape:document-units="mm"
     inkscape:current-layer="layer1"
     showgrid="false"
     inkscape:window-width="2560"
     inkscape:window-height="1385"
     inkscape:window-x="0"
     inkscape:window-y="27"
     inkscape:window-maximized="1" />
  <metadata
     id="metadata5">
    <rdf:RDF>
      <cc:Work
         rdf:about="">
        <dc:format>image/svg+xml</dc:format>
        <dc:type
           rdf:resource="http://purl.org/dc/dcmitype/StillImage" />
        <dc:title></dc:title>
      </cc:Work>
    </rdf:RDF>
  </metadata>
  <g
     inkscape:label="Layer 1"
     inkscape:groupmode="layer"
     id="layer1"
     transform="translate(0,-287)">
    <g
       id="g862"
       transform="matrix(0.76816482,0.78814054,-0.78814054,0.76816482,231.59893,64.035035)">
      <path
         inkscape:connector-curvature="0"
         id="path829"
         d="m 3.2590111,289.09848 a 2.9041008,2.9041008 0 0 0 -2.043803,0.9679 2.9041008,2.9041008 0 0 0 0.2330608,4.10053 2.9041008,2.9041008 0 0 0 4.1005249,-0.23358 2.9041008,2.9041008 0 0 0 -0.2335776,-4.10001 2.9041008,2.9041008 0 0 0 -2.0562051,-0.73484 z m 0.039274,0.92656 a 1.976878,1.976878 0 0 1 1.3999146,0.49971 1.976878,1.976878 0 0 1 0.1586465,2.79157 1.976878,1.976878 0 0 1 -2.791044,0.15864 1.976878,1.976878 0 0 1 -0.1591633,-2.79104 1.976878,1.976878 0 0 1 1.3916462,-0.65888 z"
         style="fill:#000000;fill-opacity:1;stroke:none;stroke-width:0.9395299;stroke-miterlimit:4;stroke-dasharray:none;stroke-opacity:1" />
      <rect
         ry="0.20541762"
         y="291.39981"
         x="5.6932664"
         height="1.200404"
         width="3.8033853"
         id="rect858"
         style="fill:#000000;fill-opacity:1;stroke:none;stroke-width:0.77451164;stroke-miterlimit:4;stroke-dasharray:none;stroke-opacity:1" />
    </g>
  </g>
</svg>
